<?xml version="1.0" encoding="UTF-8" standalone="no"?>
<!DOCTYPE svg PUBLIC "-//W3C//DTD SVG 1.1//EN"
 "http://www.w3.org/Graphics/SVG/1.1/DTD/svg11.dtd">
<!-- Generated by graphviz version 2.43.0 (0)
 -->
<!-- Title: %3 Pages: 1 -->
<svg width="1179pt" height="1729pt"
 viewBox="0.00 0.00 1178.60 1729.00" xmlns="http://www.w3.org/2000/svg" xmlns:xlink="http://www.w3.org/1999/xlink">
<g id="graph0" class="graph" transform="scale(1 1) rotate(0) translate(4 1725)">
<title>%3</title>
<polygon fill="white" stroke="transparent" points="-4,4 -4,-1725 1174.6,-1725 1174.6,4 -4,4"/>
<g id="clust1" class="cluster">
<title>cluster&#45;nid&#45;02</title>
<polygon fill="none" stroke="#cccccc" points="67.4,-61 67.4,-131 657.6,-131 657.6,-61 67.4,-61"/>
</g>
<g id="clust2" class="cluster">
<title>cluster&#45;nid&#45;03</title>
<polygon fill="none" stroke="#cccccc" points="67.4,-199 67.4,-269 657.6,-269 657.6,-199 67.4,-199"/>
</g>
<g id="clust3" class="cluster">
<title>cluster&#45;nid&#45;04</title>
<polygon fill="none" stroke="#cccccc" points="67.4,-291 67.4,-361 657.6,-361 657.6,-291 67.4,-291"/>
</g>
<g id="clust4" class="cluster">
<title>cluster&#45;nid&#45;05</title>
<polygon fill="none" stroke="#cccccc" points="67.4,-383 67.4,-453 657.6,-453 657.6,-383 67.4,-383"/>
</g>
<g id="clust5" class="cluster">
<title>cluster&#45;nid&#45;06</title>
<polygon fill="none" stroke="#cccccc" points="587.6,-560 587.6,-630 1105.85,-630 1105.85,-560 587.6,-560"/>
</g>
<g id="clust6" class="cluster">
<title>cluster&#45;nid&#45;07</title>
<polygon fill="none" stroke="#cccccc" points="587.6,-836 587.6,-906 1105.85,-906 1105.85,-836 587.6,-836"/>
</g>
<g id="clust7" class="cluster">
<title>cluster&#45;nid&#45;08</title>
<polygon fill="none" stroke="#cccccc" points="587.6,-1020 587.6,-1090 1105.85,-1090 1105.85,-1020 587.6,-1020"/>
</g>
<g id="clust8" class="cluster">
<title>cluster&#45;nid&#45;09</title>
<polygon fill="none" stroke="#cccccc" points="587.6,-1112 587.6,-1182 1105.85,-1182 1105.85,-1112 587.6,-1112"/>
</g>
<g id="clust9" class="cluster">
<title>cluster&#45;nid&#45;0a</title>
<polygon fill="none" stroke="#cccccc" points="8,-1197 8,-1267 302.6,-1267 302.6,-1197 8,-1197"/>
</g>
<g id="clust10" class="cluster">
<title>cluster&#45;nid&#45;0b</title>
<polygon fill="none" stroke="#cccccc" points="8,-1289 8,-1359 302.6,-1359 302.6,-1289 8,-1289"/>
</g>
<g id="clust11" class="cluster">
<title>cluster&#45;nid&#45;0c</title>
<polygon fill="none" stroke="#cccccc" points="509.24,-1374 509.24,-1444 735.96,-1444 735.96,-1374 509.24,-1374"/>
</g>
<g id="clust12" class="cluster">
<title>cluster&#45;nid&#45;0d</title>
<polygon fill="none" stroke="#cccccc" points="509.24,-1466 509.24,-1536 735.96,-1536 735.96,-1466 509.24,-1466"/>
</g>
<g id="clust13" class="cluster">
<title>cluster&#45;nid&#45;0e</title>
<polygon fill="none" stroke="#cccccc" points="30.63,-1551 30.63,-1621 279.97,-1621 279.97,-1551 30.63,-1551"/>
</g>
<g id="clust14" class="cluster">
<title>cluster&#45;nid&#45;0f</title>
<polygon fill="none" stroke="#cccccc" points="532.58,-1636 532.58,-1706 712.62,-1706 712.62,-1636 532.58,-1636"/>
</g>
<g id="clust15" class="cluster">
<title>cluster&#45;nid&#45;10&#45;in</title>
<polygon fill="none" stroke="#cccccc" points="947.6,-100 947.6,-184 1157.6,-184 1157.6,-100 947.6,-100"/>
</g>
<g id="clust17" class="cluster">
<title>cluster&#45;nid&#45;11&#45;in</title>
<polygon fill="none" stroke="#cccccc" points="942.6,-8 942.6,-92 1162.6,-92 1162.6,-8 942.6,-8"/>
</g>
<g id="clust19" class="cluster">
<title>cluster&#45;nid&#45;12&#45;in</title>
<polygon fill="none" stroke="#cccccc" points="942.6,-192 942.6,-276 1162.6,-276 1162.6,-192 942.6,-192"/>
</g>
<g id="clust21" class="cluster">
<title>cluster&#45;nid&#45;13&#45;in</title>
<polygon fill="none" stroke="#cccccc" points="942.6,-284 942.6,-368 1162.6,-368 1162.6,-284 942.6,-284"/>
</g>
<g id="clust23" class="cluster">
<title>cluster&#45;nid&#45;14&#45;in</title>
<polygon fill="none" stroke="#cccccc" points="942.6,-376 942.6,-460 1162.6,-460 1162.6,-376 942.6,-376"/>
</g>
<g id="clust26" class="cluster">
<title>cluster&#45;nid&#45;15&#45;out</title>
<polygon fill="none" stroke="#cccccc" points="37.8,-645 37.8,-729 272.8,-729 272.8,-645 37.8,-645"/>
</g>
<g id="clust28" class="cluster">
<title>cluster&#45;nid&#45;16&#45;out</title>
<polygon fill="none" stroke="#cccccc" points="37.8,-921 37.8,-1005 272.8,-1005 272.8,-921 37.8,-921"/>
</g>
<g id="clust30" class="cluster">
<title>cluster&#45;nid&#45;17&#45;out</title>
<polygon fill="none" stroke="#cccccc" points="51.8,-553 51.8,-637 258.8,-637 258.8,-553 51.8,-553"/>
</g>
<g id="clust32" class="cluster">
<title>cluster&#45;nid&#45;18&#45;out</title>
<polygon fill="none" stroke="#cccccc" points="63.3,-829 63.3,-913 247.3,-913 247.3,-829 63.3,-829"/>
</g>
<g id="clust34" class="cluster">
<title>cluster&#45;nid&#45;19&#45;out</title>
<polygon fill="none" stroke="#cccccc" points="37.8,-461 37.8,-545 272.8,-545 272.8,-461 37.8,-461"/>
</g>
<g id="clust36" class="cluster">
<title>cluster&#45;nid&#45;1a&#45;out</title>
<polygon fill="none" stroke="#cccccc" points="37.8,-737 37.8,-821 272.8,-821 272.8,-737 37.8,-737"/>
</g>
<g id="clust38" class="cluster">
<title>cluster&#45;nid&#45;1b&#45;out</title>
<polygon fill="none" stroke="#cccccc" points="37.8,-1013 37.8,-1097 272.8,-1097 272.8,-1013 37.8,-1013"/>
</g>
<g id="clust40" class="cluster">
<title>cluster&#45;nid&#45;1c&#45;out</title>
<polygon fill="none" stroke="#cccccc" points="37.8,-1105 37.8,-1189 272.8,-1189 272.8,-1105 37.8,-1105"/>
</g>
<g id="clust41" class="cluster">
<title>cluster&#45;nid&#45;1d&#45;in</title>
<polygon fill="none" stroke="#cccccc" points="512.6,-1190 512.6,-1274 732.6,-1274 732.6,-1190 512.6,-1190"/>
</g>
<g id="clust43" class="cluster">
<title>cluster&#45;nid&#45;1e&#45;in</title>
<polygon fill="none" stroke="#cccccc" points="502.6,-1282 502.6,-1366 742.6,-1366 742.6,-1282 502.6,-1282"/>
</g>
<g id="clust46" class="cluster">
<title>cluster&#45;nid&#45;1f&#45;out</title>
<polygon fill="none" stroke="#cccccc" points="41.3,-1367 41.3,-1451 269.3,-1451 269.3,-1367 41.3,-1367"/>
</g>
<g id="clust48" class="cluster">
<title>cluster&#45;nid&#45;20&#45;out</title>
<polygon fill="none" stroke="#cccccc" points="41.3,-1459 41.3,-1543 269.3,-1543 269.3,-1459 41.3,-1459"/>
</g>
<g id="clust49" class="cluster">
<title>cluster&#45;nid&#45;21&#45;in</title>
<polygon fill="none" stroke="#cccccc" points="505.6,-1544 505.6,-1628 739.6,-1628 739.6,-1544 505.6,-1544"/>
</g>
<g id="clust52" class="cluster">
<title>cluster&#45;nid&#45;22&#45;out</title>
<polygon fill="none" stroke="#cccccc" points="44.3,-1629 44.3,-1713 266.3,-1713 266.3,-1629 44.3,-1629"/>
</g>
<!-- nid&#45;02 -->
<g id="node1" class="node">
<title>nid&#45;02</title>
<ellipse fill="none" stroke="blue" cx="155.3" cy="-96" rx="79.81" ry="26.74"/>
<text text-anchor="middle" x="155.3" y="-99.8" font-family="Times,serif" font-size="14.00">0x02</text>
<text text-anchor="middle" x="155.3" y="-84.8" font-family="Times,serif" font-size="14.00">Stereo Stripe</text>
</g>
<!-- nid&#45;02&#45;ampout -->
<g id="node2" class="node">
<title>nid&#45;02&#45;ampout</title>
<polygon fill="none" stroke="#0000ff" points="649.6,-96 609.1,-114 609.1,-78 649.6,-96"/>
</g>
<!-- nid&#45;02&#45;&gt;nid&#45;02&#45;ampout -->
<g id="edge1" class="edge">
<title>nid&#45;02&#45;&gt;nid&#45;02&#45;ampout</title>
<path fill="none" stroke="#0000ff" d="M235.23,-96C346.98,-96 544.37,-96 604.04,-96"/>
<polygon fill="#0000ff" stroke="#0000ff" points="604.06,-97.75 609.06,-96 604.06,-94.25 604.06,-97.75"/>
</g>
<!-- nid&#45;10&#45;in -->
<g id="node34" class="node">
<title>nid&#45;10&#45;in</title>
<polygon fill="none" stroke="green" points="1149.6,-176 955.6,-176 955.6,-108 1149.6,-108 1149.6,-176"/>
<text text-anchor="middle" x="1052.6" y="-160.8" font-family="Times,serif" font-size="14.00">0x10</text>
<text text-anchor="middle" x="1052.6" y="-145.8" font-family="Times,serif" font-size="14.00">[Jack] HP Out at Ext Left</text>
<text text-anchor="middle" x="1052.6" y="-130.8" font-family="Times,serif" font-size="14.00">Stereo</text>
<text text-anchor="middle" x="1052.6" y="-115.8" font-family="Times,serif" font-size="14.00">OUT HP Detect</text>
</g>
<!-- nid&#45;02&#45;ampout&#45;&gt;nid&#45;10&#45;in -->
<g id="edge20" class="edge">
<title>nid&#45;02&#45;ampout&#45;&gt;nid&#45;10&#45;in</title>
<path fill="none" stroke="#333333" d="M644.82,-98.28C698.78,-104.08 844.07,-119.69 945.52,-130.6"/>
<polygon fill="#333333" stroke="#333333" points="945.19,-134.08 955.51,-131.67 945.94,-127.12 945.19,-134.08"/>
</g>
<!-- nid&#45;11&#45;in -->
<g id="node35" class="node">
<title>nid&#45;11&#45;in</title>
<polygon fill="none" stroke="green" points="1154.6,-84 950.6,-84 950.6,-16 1154.6,-16 1154.6,-84"/>
<text text-anchor="middle" x="1052.6" y="-68.8" font-family="Times,serif" font-size="14.00">0x11</text>
<text text-anchor="middle" x="1052.6" y="-53.8" font-family="Times,serif" font-size="14.00">[Fixed] Speaker at Int N/A</text>
<text text-anchor="middle" x="1052.6" y="-38.8" font-family="Times,serif" font-size="14.00">Stereo</text>
<text text-anchor="middle" x="1052.6" y="-23.8" font-family="Times,serif" font-size="14.00">OUT Detect Balanced</text>
</g>
<!-- nid&#45;02&#45;ampout&#45;&gt;nid&#45;11&#45;in -->
<g id="edge21" class="edge">
<title>nid&#45;02&#45;ampout&#45;&gt;nid&#45;11&#45;in</title>
<path fill="none" stroke="#333333" d="M644.82,-93.72C697.88,-88.02 839.26,-72.82 940.42,-61.95"/>
<polygon fill="#333333" stroke="#333333" points="940.82,-65.43 950.39,-60.88 940.07,-58.47 940.82,-65.43"/>
</g>
<!-- nid&#45;03 -->
<g id="node3" class="node">
<title>nid&#45;03</title>
<ellipse fill="none" stroke="blue" cx="155.3" cy="-234" rx="79.81" ry="26.74"/>
<text text-anchor="middle" x="155.3" y="-237.8" font-family="Times,serif" font-size="14.00">0x03</text>
<text text-anchor="middle" x="155.3" y="-222.8" font-family="Times,serif" font-size="14.00">Stereo Stripe</text>
</g>
<!-- nid&#45;03&#45;ampout -->
<g id="node4" class="node">
<title>nid&#45;03&#45;ampout</title>
<polygon fill="none" stroke="#c8c8c8" points="649.6,-234 609.1,-252 609.1,-216 649.6,-234"/>
</g>
<!-- nid&#45;03&#45;&gt;nid&#45;03&#45;ampout -->
<g id="edge2" class="edge">
<title>nid&#45;03&#45;&gt;nid&#45;03&#45;ampout</title>
<path fill="none" stroke="#c8c8c8" d="M235.23,-234C346.98,-234 544.37,-234 604.04,-234"/>
<polygon fill="#c8c8c8" stroke="#c8c8c8" points="604.06,-235.75 609.06,-234 604.06,-232.25 604.06,-235.75"/>
</g>
<!-- nid&#45;12&#45;in -->
<g id="node36" class="node">
<title>nid&#45;12&#45;in</title>
<polygon fill="none" stroke="green" points="1154.6,-268 950.6,-268 950.6,-200 1154.6,-200 1154.6,-268"/>
<text text-anchor="middle" x="1052.6" y="-252.8" font-family="Times,serif" font-size="14.00">0x12</text>
<text text-anchor="middle" x="1052.6" y="-237.8" font-family="Times,serif" font-size="14.00">[Fixed] Speaker at Int N/A</text>
<text text-anchor="middle" x="1052.6" y="-222.8" font-family="Times,serif" font-size="14.00">Stereo</text>
<text text-anchor="middle" x="1052.6" y="-207.8" font-family="Times,serif" font-size="14.00">OUT Balanced</text>
</g>
<!-- nid&#45;03&#45;ampout&#45;&gt;nid&#45;12&#45;in -->
<g id="edge22" class="edge">
<title>nid&#45;03&#45;ampout&#45;&gt;nid&#45;12&#45;in</title>
<path fill="none" stroke="#333333" d="M649.73,-234C706.09,-234 841.89,-234 940.06,-234"/>
<polygon fill="#333333" stroke="#333333" points="940.33,-237.5 950.33,-234 940.33,-230.5 940.33,-237.5"/>
</g>
<!-- nid&#45;04 -->
<g id="node5" class="node">
<title>nid&#45;04</title>
<ellipse fill="none" stroke="blue" cx="155.3" cy="-326" rx="79.81" ry="26.74"/>
<text text-anchor="middle" x="155.3" y="-329.8" font-family="Times,serif" font-size="14.00">0x04</text>
<text text-anchor="middle" x="155.3" y="-314.8" font-family="Times,serif" font-size="14.00">Stereo Stripe</text>
</g>
<!-- nid&#45;04&#45;ampout -->
<g id="node6" class="node">
<title>nid&#45;04&#45;ampout</title>
<polygon fill="none" stroke="#c8c8c8" points="649.6,-326 609.1,-344 609.1,-308 649.6,-326"/>
</g>
<!-- nid&#45;04&#45;&gt;nid&#45;04&#45;ampout -->
<g id="edge3" class="edge">
<title>nid&#45;04&#45;&gt;nid&#45;04&#45;ampout</title>
<path fill="none" stroke="#c8c8c8" d="M235.23,-326C346.98,-326 544.37,-326 604.04,-326"/>
<polygon fill="#c8c8c8" stroke="#c8c8c8" points="604.06,-327.75 609.06,-326 604.06,-324.25 604.06,-327.75"/>
</g>
<!-- nid&#45;13&#45;in -->
<g id="node37" class="node">
<title>nid&#45;13&#45;in</title>
<polygon fill="none" stroke="green" points="1154.6,-360 950.6,-360 950.6,-292 1154.6,-292 1154.6,-360"/>
<text text-anchor="middle" x="1052.6" y="-344.8" font-family="Times,serif" font-size="14.00">0x13</text>
<text text-anchor="middle" x="1052.6" y="-329.8" font-family="Times,serif" font-size="14.00">[Fixed] Speaker at Int N/A</text>
<text text-anchor="middle" x="1052.6" y="-314.8" font-family="Times,serif" font-size="14.00">Stereo</text>
<text text-anchor="middle" x="1052.6" y="-299.8" font-family="Times,serif" font-size="14.00">OUT Balanced</text>
</g>
<!-- nid&#45;04&#45;ampout&#45;&gt;nid&#45;13&#45;in -->
<g id="edge23" class="edge">
<title>nid&#45;04&#45;ampout&#45;&gt;nid&#45;13&#45;in</title>
<path fill="none" stroke="#333333" d="M649.73,-326C706.09,-326 841.89,-326 940.06,-326"/>
<polygon fill="#333333" stroke="#333333" points="940.33,-329.5 950.33,-326 940.33,-322.5 940.33,-329.5"/>
</g>
<!-- nid&#45;05 -->
<g id="node7" class="node">
<title>nid&#45;05</title>
<ellipse fill="none" stroke="blue" cx="155.3" cy="-418" rx="79.81" ry="26.74"/>
<text text-anchor="middle" x="155.3" y="-421.8" font-family="Times,serif" font-size="14.00">0x05</text>
<text text-anchor="middle" x="155.3" y="-406.8" font-family="Times,serif" font-size="14.00">Stereo Stripe</text>
</g>
<!-- nid&#45;05&#45;ampout -->
<g id="node8" class="node">
<title>nid&#45;05&#45;ampout</title>
<polygon fill="none" stroke="#c8c8c8" points="649.6,-418 609.1,-436 609.1,-400 649.6,-418"/>
</g>
<!-- nid&#45;05&#45;&gt;nid&#45;05&#45;ampout -->
<g id="edge4" class="edge">
<title>nid&#45;05&#45;&gt;nid&#45;05&#45;ampout</title>
<path fill="none" stroke="#c8c8c8" d="M235.23,-418C346.98,-418 544.37,-418 604.04,-418"/>
<polygon fill="#c8c8c8" stroke="#c8c8c8" points="604.06,-419.75 609.06,-418 604.06,-416.25 604.06,-419.75"/>
</g>
<!-- nid&#45;14&#45;in -->
<g id="node38" class="node">
<title>nid&#45;14&#45;in</title>
<polygon fill="none" stroke="green" points="1154.6,-452 950.6,-452 950.6,-384 1154.6,-384 1154.6,-452"/>
<text text-anchor="middle" x="1052.6" y="-436.8" font-family="Times,serif" font-size="14.00">0x14</text>
<text text-anchor="middle" x="1052.6" y="-421.8" font-family="Times,serif" font-size="14.00">[Fixed] Speaker at Int N/A</text>
<text text-anchor="middle" x="1052.6" y="-406.8" font-family="Times,serif" font-size="14.00">Stereo</text>
<text text-anchor="middle" x="1052.6" y="-391.8" font-family="Times,serif" font-size="14.00">OUT Balanced</text>
</g>
<!-- nid&#45;05&#45;ampout&#45;&gt;nid&#45;14&#45;in -->
<g id="edge24" class="edge">
<title>nid&#45;05&#45;ampout&#45;&gt;nid&#45;14&#45;in</title>
<path fill="none" stroke="#333333" d="M649.73,-418C706.09,-418 841.89,-418 940.06,-418"/>
<polygon fill="#333333" stroke="#333333" points="940.33,-421.5 950.33,-418 940.33,-414.5 940.33,-421.5"/>
</g>
<!-- nid&#45;06 -->
<g id="node9" class="node">
<title>nid&#45;06</title>
<ellipse fill="none" stroke="red" cx="1052.6" cy="-595" rx="45.01" ry="26.74"/>
<text text-anchor="middle" x="1052.6" y="-598.8" font-family="Times,serif" font-size="14.00">0x06</text>
<text text-anchor="middle" x="1052.6" y="-583.8" font-family="Times,serif" font-size="14.00">Stereo</text>
</g>
<!-- nid&#45;06&#45;ampin -->
<g id="node10" class="node">
<title>nid&#45;06&#45;ampin</title>
<polygon fill="none" stroke="#0606fd" points="649.6,-595 609.1,-613 609.1,-577 649.6,-595"/>
</g>
<!-- nid&#45;06&#45;ampin&#45;&gt;nid&#45;06 -->
<g id="edge5" class="edge">
<title>nid&#45;06&#45;ampin&#45;&gt;nid&#45;06</title>
<path fill="none" stroke="#0606fd" d="M649.73,-595C719.47,-595 910.86,-595 1002.04,-595"/>
<polygon fill="#0606fd" stroke="#0606fd" points="1002.11,-596.75 1007.11,-595 1002.11,-593.25 1002.11,-596.75"/>
</g>
<!-- nid&#45;15&#45;out -->
<g id="node11" class="node">
<title>nid&#45;15&#45;out</title>
<polygon fill="none" stroke="green" points="264.8,-721 45.8,-721 45.8,-653 264.8,-653 264.8,-721"/>
<text text-anchor="middle" x="155.3" y="-705.8" font-family="Times,serif" font-size="14.00">0x15</text>
<text text-anchor="middle" x="155.3" y="-690.8" font-family="Times,serif" font-size="14.00">[Fixed] Mic at Oth Mobile&#45;In</text>
<text text-anchor="middle" x="155.3" y="-675.8" font-family="Times,serif" font-size="14.00">Stereo</text>
<text text-anchor="middle" x="155.3" y="-660.8" font-family="Times,serif" font-size="14.00">IN</text>
</g>
<!-- nid&#45;15&#45;out&#45;&gt;nid&#45;06&#45;ampin -->
<g id="edge6" class="edge">
<title>nid&#45;15&#45;out&#45;&gt;nid&#45;06&#45;ampin</title>
<path fill="none" stroke="gray" stroke-dasharray="5,2" d="M264.8,-665.55C375.56,-643.65 539.39,-611.25 598.93,-599.48"/>
<polygon fill="gray" stroke="gray" points="599.97,-602.85 609.1,-597.47 598.61,-595.98 599.97,-602.85"/>
</g>
<!-- nid&#45;17&#45;out -->
<g id="node12" class="node">
<title>nid&#45;17&#45;out</title>
<polygon fill="none" stroke="green" points="250.8,-629 59.8,-629 59.8,-561 250.8,-561 250.8,-629"/>
<text text-anchor="middle" x="155.3" y="-613.8" font-family="Times,serif" font-size="14.00">0x17</text>
<text text-anchor="middle" x="155.3" y="-598.8" font-family="Times,serif" font-size="14.00">[Jack] Line In at Ext Left</text>
<text text-anchor="middle" x="155.3" y="-583.8" font-family="Times,serif" font-size="14.00">Stereo</text>
<text text-anchor="middle" x="155.3" y="-568.8" font-family="Times,serif" font-size="14.00">IN Detect</text>
</g>
<!-- nid&#45;17&#45;out&#45;&gt;nid&#45;06&#45;ampin -->
<g id="edge7" class="edge">
<title>nid&#45;17&#45;out&#45;&gt;nid&#45;06&#45;ampin</title>
<path fill="none" stroke="gray" stroke-dasharray="5,2" d="M251.02,-595C361.34,-595 536.4,-595 598.68,-595"/>
<polygon fill="gray" stroke="gray" points="598.96,-598.5 608.96,-595 598.96,-591.5 598.96,-598.5"/>
</g>
<!-- nid&#45;19&#45;out -->
<g id="node13" class="node">
<title>nid&#45;19&#45;out</title>
<polygon fill="none" stroke="green" points="264.8,-537 45.8,-537 45.8,-469 264.8,-469 264.8,-537"/>
<text text-anchor="middle" x="155.3" y="-521.8" font-family="Times,serif" font-size="14.00">0x19</text>
<text text-anchor="middle" x="155.3" y="-506.8" font-family="Times,serif" font-size="14.00">[Fixed] Mic at Oth Mobile&#45;In</text>
<text text-anchor="middle" x="155.3" y="-491.8" font-family="Times,serif" font-size="14.00">Stereo</text>
<text text-anchor="middle" x="155.3" y="-476.8" font-family="Times,serif" font-size="14.00">IN</text>
</g>
<!-- nid&#45;19&#45;out&#45;&gt;nid&#45;06&#45;ampin -->
<g id="edge8" class="edge">
<title>nid&#45;19&#45;out&#45;&gt;nid&#45;06&#45;ampin</title>
<path fill="none" stroke="#333333" d="M264.8,-524.45C375.56,-546.35 539.39,-578.75 598.93,-590.52"/>
<polygon fill="#333333" stroke="#333333" points="598.61,-594.02 609.1,-592.53 599.97,-587.15 598.61,-594.02"/>
</g>
<!-- nid&#45;07 -->
<g id="node14" class="node">
<title>nid&#45;07</title>
<ellipse fill="none" stroke="red" cx="1052.6" cy="-871" rx="45.01" ry="26.74"/>
<text text-anchor="middle" x="1052.6" y="-874.8" font-family="Times,serif" font-size="14.00">0x07</text>
<text text-anchor="middle" x="1052.6" y="-859.8" font-family="Times,serif" font-size="14.00">Stereo</text>
</g>
<!-- nid&#45;07&#45;ampin -->
<g id="node15" class="node">
<title>nid&#45;07&#45;ampin</title>
<polygon fill="none" stroke="#c8c8c8" points="649.6,-871 609.1,-889 609.1,-853 649.6,-871"/>
</g>
<!-- nid&#45;07&#45;ampin&#45;&gt;nid&#45;07 -->
<g id="edge9" class="edge">
<title>nid&#45;07&#45;ampin&#45;&gt;nid&#45;07</title>
<path fill="none" stroke="#c8c8c8" d="M649.73,-871C719.47,-871 910.86,-871 1002.04,-871"/>
<polygon fill="#c8c8c8" stroke="#c8c8c8" points="1002.11,-872.75 1007.11,-871 1002.11,-869.25 1002.11,-872.75"/>
</g>
<!-- nid&#45;16&#45;out -->
<g id="node16" class="node">
<title>nid&#45;16&#45;out</title>
<polygon fill="none" stroke="green" points="264.8,-997 45.8,-997 45.8,-929 264.8,-929 264.8,-997"/>
<text text-anchor="middle" x="155.3" y="-981.8" font-family="Times,serif" font-size="14.00">0x16</text>
<text text-anchor="middle" x="155.3" y="-966.8" font-family="Times,serif" font-size="14.00">[Fixed] Mic at Oth Mobile&#45;In</text>
<text text-anchor="middle" x="155.3" y="-951.8" font-family="Times,serif" font-size="14.00">Stereo</text>
<text text-anchor="middle" x="155.3" y="-936.8" font-family="Times,serif" font-size="14.00">IN</text>
</g>
<!-- nid&#45;16&#45;out&#45;&gt;nid&#45;07&#45;ampin -->
<g id="edge10" class="edge">
<title>nid&#45;16&#45;out&#45;&gt;nid&#45;07&#45;ampin</title>
<path fill="none" stroke="#333333" d="M264.8,-941.55C375.56,-919.65 539.39,-887.25 598.93,-875.48"/>
<polygon fill="#333333" stroke="#333333" points="599.97,-878.85 609.1,-873.47 598.61,-871.98 599.97,-878.85"/>
</g>
<!-- nid&#45;18&#45;out -->
<g id="node17" class="node">
<title>nid&#45;18&#45;out</title>
<polygon fill="none" stroke="green" points="239.3,-905 71.3,-905 71.3,-837 239.3,-837 239.3,-905"/>
<text text-anchor="middle" x="155.3" y="-889.8" font-family="Times,serif" font-size="14.00">0x18</text>
<text text-anchor="middle" x="155.3" y="-874.8" font-family="Times,serif" font-size="14.00">[Jack] Mic at Ext Left</text>
<text text-anchor="middle" x="155.3" y="-859.8" font-family="Times,serif" font-size="14.00">Mono</text>
<text text-anchor="middle" x="155.3" y="-844.8" font-family="Times,serif" font-size="14.00">IN Detect</text>
</g>
<!-- nid&#45;18&#45;out&#45;&gt;nid&#45;07&#45;ampin -->
<g id="edge11" class="edge">
<title>nid&#45;18&#45;out&#45;&gt;nid&#45;07&#45;ampin</title>
<path fill="none" stroke="gray" stroke-dasharray="5,2" d="M239.49,-871C348.73,-871 534.21,-871 598.7,-871"/>
<polygon fill="gray" stroke="gray" points="598.96,-874.5 608.96,-871 598.96,-867.5 598.96,-874.5"/>
</g>
<!-- nid&#45;1a&#45;out -->
<g id="node18" class="node">
<title>nid&#45;1a&#45;out</title>
<polygon fill="none" stroke="green" points="264.8,-813 45.8,-813 45.8,-745 264.8,-745 264.8,-813"/>
<text text-anchor="middle" x="155.3" y="-797.8" font-family="Times,serif" font-size="14.00">0x1a</text>
<text text-anchor="middle" x="155.3" y="-782.8" font-family="Times,serif" font-size="14.00">[Fixed] Mic at Oth Mobile&#45;In</text>
<text text-anchor="middle" x="155.3" y="-767.8" font-family="Times,serif" font-size="14.00">Stereo</text>
<text text-anchor="middle" x="155.3" y="-752.8" font-family="Times,serif" font-size="14.00">IN</text>
</g>
<!-- nid&#45;1a&#45;out&#45;&gt;nid&#45;07&#45;ampin -->
<g id="edge12" class="edge">
<title>nid&#45;1a&#45;out&#45;&gt;nid&#45;07&#45;ampin</title>
<path fill="none" stroke="gray" stroke-dasharray="5,2" d="M264.8,-800.45C375.56,-822.35 539.39,-854.75 598.93,-866.52"/>
<polygon fill="gray" stroke="gray" points="598.61,-870.02 609.1,-868.53 599.97,-863.15 598.61,-870.02"/>
</g>
<!-- nid&#45;08 -->
<g id="node19" class="node">
<title>nid&#45;08</title>
<ellipse fill="none" stroke="red" cx="1052.6" cy="-1055" rx="45.01" ry="26.74"/>
<text text-anchor="middle" x="1052.6" y="-1058.8" font-family="Times,serif" font-size="14.00">0x08</text>
<text text-anchor="middle" x="1052.6" y="-1043.8" font-family="Times,serif" font-size="14.00">Stereo</text>
</g>
<!-- nid&#45;08&#45;ampin -->
<g id="node20" class="node">
<title>nid&#45;08&#45;ampin</title>
<polygon fill="none" stroke="#c8c8c8" points="649.6,-1055 609.1,-1073 609.1,-1037 649.6,-1055"/>
</g>
<!-- nid&#45;08&#45;ampin&#45;&gt;nid&#45;08 -->
<g id="edge13" class="edge">
<title>nid&#45;08&#45;ampin&#45;&gt;nid&#45;08</title>
<path fill="none" stroke="#c8c8c8" d="M649.73,-1055C719.47,-1055 910.86,-1055 1002.04,-1055"/>
<polygon fill="#c8c8c8" stroke="#c8c8c8" points="1002.11,-1056.75 1007.11,-1055 1002.11,-1053.25 1002.11,-1056.75"/>
</g>
<!-- nid&#45;1b&#45;out -->
<g id="node21" class="node">
<title>nid&#45;1b&#45;out</title>
<polygon fill="none" stroke="green" points="264.8,-1089 45.8,-1089 45.8,-1021 264.8,-1021 264.8,-1089"/>
<text text-anchor="middle" x="155.3" y="-1073.8" font-family="Times,serif" font-size="14.00">0x1b</text>
<text text-anchor="middle" x="155.3" y="-1058.8" font-family="Times,serif" font-size="14.00">[Fixed] Mic at Oth Mobile&#45;In</text>
<text text-anchor="middle" x="155.3" y="-1043.8" font-family="Times,serif" font-size="14.00">Stereo</text>
<text text-anchor="middle" x="155.3" y="-1028.8" font-family="Times,serif" font-size="14.00">IN</text>
</g>
<!-- nid&#45;1b&#45;out&#45;&gt;nid&#45;08&#45;ampin -->
<g id="edge14" class="edge">
<title>nid&#45;1b&#45;out&#45;&gt;nid&#45;08&#45;ampin</title>
<path fill="none" stroke="#333333" d="M264.8,-1055C375.56,-1055 539.39,-1055 598.93,-1055"/>
<polygon fill="#333333" stroke="#333333" points="599.1,-1058.5 609.1,-1055 599.1,-1051.5 599.1,-1058.5"/>
</g>
<!-- nid&#45;09 -->
<g id="node22" class="node">
<title>nid&#45;09</title>
<ellipse fill="none" stroke="red" cx="1052.6" cy="-1147" rx="45.01" ry="26.74"/>
<text text-anchor="middle" x="1052.6" y="-1150.8" font-family="Times,serif" font-size="14.00">0x09</text>
<text text-anchor="middle" x="1052.6" y="-1135.8" font-family="Times,serif" font-size="14.00">Stereo</text>
</g>
<!-- nid&#45;09&#45;ampin -->
<g id="node23" class="node">
<title>nid&#45;09&#45;ampin</title>
<polygon fill="none" stroke="#c8c8c8" points="649.6,-1147 609.1,-1165 609.1,-1129 649.6,-1147"/>
</g>
<!-- nid&#45;09&#45;ampin&#45;&gt;nid&#45;09 -->
<g id="edge15" class="edge">
<title>nid&#45;09&#45;ampin&#45;&gt;nid&#45;09</title>
<path fill="none" stroke="#c8c8c8" d="M649.73,-1147C719.47,-1147 910.86,-1147 1002.04,-1147"/>
<polygon fill="#c8c8c8" stroke="#c8c8c8" points="1002.11,-1148.75 1007.11,-1147 1002.11,-1145.25 1002.11,-1148.75"/>
</g>
<!-- nid&#45;1c&#45;out -->
<g id="node24" class="node">
<title>nid&#45;1c&#45;out</title>
<polygon fill="none" stroke="green" points="264.8,-1181 45.8,-1181 45.8,-1113 264.8,-1113 264.8,-1181"/>
<text text-anchor="middle" x="155.3" y="-1165.8" font-family="Times,serif" font-size="14.00">0x1c</text>
<text text-anchor="middle" x="155.3" y="-1150.8" font-family="Times,serif" font-size="14.00">[Fixed] Mic at Oth Mobile&#45;In</text>
<text text-anchor="middle" x="155.3" y="-1135.8" font-family="Times,serif" font-size="14.00">Stereo</text>
<text text-anchor="middle" x="155.3" y="-1120.8" font-family="Times,serif" font-size="14.00">IN</text>
</g>
<!-- nid&#45;1c&#45;out&#45;&gt;nid&#45;09&#45;ampin -->
<g id="edge16" class="edge">
<title>nid&#45;1c&#45;out&#45;&gt;nid&#45;09&#45;ampin</title>
<path fill="none" stroke="#333333" d="M264.8,-1147C375.56,-1147 539.39,-1147 598.93,-1147"/>
<polygon fill="#333333" stroke="#333333" points="599.1,-1150.5 609.1,-1147 599.1,-1143.5 599.1,-1150.5"/>
</g>
<!-- nid&#45;0a -->
<g id="node25" class="node">
<title>nid&#45;0a</title>
<ellipse fill="none" stroke="blue" cx="155.3" cy="-1232" rx="139.1" ry="26.74"/>
<text text-anchor="middle" x="155.3" y="-1235.8" font-family="Times,serif" font-size="14.00">0x0a</text>
<text text-anchor="middle" x="155.3" y="-1220.8" font-family="Times,serif" font-size="14.00">8&#45;Channels Digital Stripe</text>
</g>
<!-- nid&#45;1d&#45;in -->
<g id="node39" class="node">
<title>nid&#45;1d&#45;in</title>
<polygon fill="none" stroke="green" points="724.6,-1266 520.6,-1266 520.6,-1198 724.6,-1198 724.6,-1266"/>
<text text-anchor="middle" x="622.6" y="-1250.8" font-family="Times,serif" font-size="14.00">0x1d</text>
<text text-anchor="middle" x="622.6" y="-1235.8" font-family="Times,serif" font-size="14.00">[Fixed] Speaker at Int N/A</text>
<text text-anchor="middle" x="622.6" y="-1220.8" font-family="Times,serif" font-size="14.00">8&#45;Channels Digital</text>
<text text-anchor="middle" x="622.6" y="-1205.8" font-family="Times,serif" font-size="14.00">OUT</text>
</g>
<!-- nid&#45;0a&#45;&gt;nid&#45;1d&#45;in -->
<g id="edge25" class="edge">
<title>nid&#45;0a&#45;&gt;nid&#45;1d&#45;in</title>
<path fill="none" stroke="#333333" d="M294.65,-1232C363.43,-1232 445.45,-1232 510.13,-1232"/>
<polygon fill="#333333" stroke="#333333" points="510.36,-1235.5 520.36,-1232 510.36,-1228.5 510.36,-1235.5"/>
</g>
<!-- nid&#45;0b -->
<g id="node26" class="node">
<title>nid&#45;0b</title>
<ellipse fill="none" stroke="blue" cx="155.3" cy="-1324" rx="139.1" ry="26.74"/>
<text text-anchor="middle" x="155.3" y="-1327.8" font-family="Times,serif" font-size="14.00">0x0b</text>
<text text-anchor="middle" x="155.3" y="-1312.8" font-family="Times,serif" font-size="14.00">8&#45;Channels Digital Stripe</text>
</g>
<!-- nid&#45;1e&#45;in -->
<g id="node40" class="node">
<title>nid&#45;1e&#45;in</title>
<polygon fill="none" stroke="green" points="734.6,-1358 510.6,-1358 510.6,-1290 734.6,-1290 734.6,-1358"/>
<text text-anchor="middle" x="622.6" y="-1342.8" font-family="Times,serif" font-size="14.00">0x1e</text>
<text text-anchor="middle" x="622.6" y="-1327.8" font-family="Times,serif" font-size="14.00">[Fixed] Digital Out at Int N/A</text>
<text text-anchor="middle" x="622.6" y="-1312.8" font-family="Times,serif" font-size="14.00">8&#45;Channels Digital</text>
<text text-anchor="middle" x="622.6" y="-1297.8" font-family="Times,serif" font-size="14.00">OUT</text>
</g>
<!-- nid&#45;0b&#45;&gt;nid&#45;1e&#45;in -->
<g id="edge26" class="edge">
<title>nid&#45;0b&#45;&gt;nid&#45;1e&#45;in</title>
<path fill="none" stroke="#333333" d="M294.65,-1324C359.86,-1324 436.98,-1324 499.93,-1324"/>
<polygon fill="#333333" stroke="#333333" points="500.31,-1327.5 510.31,-1324 500.31,-1320.5 500.31,-1327.5"/>
</g>
<!-- nid&#45;0c -->
<g id="node27" class="node">
<title>nid&#45;0c</title>
<ellipse fill="none" stroke="red" cx="622.6" cy="-1409" rx="105.22" ry="26.74"/>
<text text-anchor="middle" x="622.6" y="-1412.8" font-family="Times,serif" font-size="14.00">0x0c</text>
<text text-anchor="middle" x="622.6" y="-1397.8" font-family="Times,serif" font-size="14.00">8&#45;Channels Digital</text>
</g>
<!-- nid&#45;1f&#45;out -->
<g id="node28" class="node">
<title>nid&#45;1f&#45;out</title>
<polygon fill="none" stroke="green" points="261.3,-1443 49.3,-1443 49.3,-1375 261.3,-1375 261.3,-1443"/>
<text text-anchor="middle" x="155.3" y="-1427.8" font-family="Times,serif" font-size="14.00">0x1f</text>
<text text-anchor="middle" x="155.3" y="-1412.8" font-family="Times,serif" font-size="14.00">[Fixed] Digital In at Int N/A</text>
<text text-anchor="middle" x="155.3" y="-1397.8" font-family="Times,serif" font-size="14.00">8&#45;Channels Digital</text>
<text text-anchor="middle" x="155.3" y="-1382.8" font-family="Times,serif" font-size="14.00">IN</text>
</g>
<!-- nid&#45;1f&#45;out&#45;&gt;nid&#45;0c -->
<g id="edge17" class="edge">
<title>nid&#45;1f&#45;out&#45;&gt;nid&#45;0c</title>
<path fill="none" stroke="#333333" d="M261.3,-1409C334.26,-1409 431.48,-1409 506.54,-1409"/>
<polygon fill="#333333" stroke="#333333" points="506.98,-1412.5 516.98,-1409 506.98,-1405.5 506.98,-1412.5"/>
</g>
<!-- nid&#45;0d -->
<g id="node29" class="node">
<title>nid&#45;0d</title>
<ellipse fill="none" stroke="red" cx="622.6" cy="-1501" rx="105.22" ry="26.74"/>
<text text-anchor="middle" x="622.6" y="-1504.8" font-family="Times,serif" font-size="14.00">0x0d</text>
<text text-anchor="middle" x="622.6" y="-1489.8" font-family="Times,serif" font-size="14.00">8&#45;Channels Digital</text>
</g>
<!-- nid&#45;20&#45;out -->
<g id="node30" class="node">
<title>nid&#45;20&#45;out</title>
<polygon fill="none" stroke="green" points="261.3,-1535 49.3,-1535 49.3,-1467 261.3,-1467 261.3,-1535"/>
<text text-anchor="middle" x="155.3" y="-1519.8" font-family="Times,serif" font-size="14.00">0x20</text>
<text text-anchor="middle" x="155.3" y="-1504.8" font-family="Times,serif" font-size="14.00">[Fixed] Digital In at Int N/A</text>
<text text-anchor="middle" x="155.3" y="-1489.8" font-family="Times,serif" font-size="14.00">8&#45;Channels Digital</text>
<text text-anchor="middle" x="155.3" y="-1474.8" font-family="Times,serif" font-size="14.00">IN</text>
</g>
<!-- nid&#45;20&#45;out&#45;&gt;nid&#45;0d -->
<g id="edge18" class="edge">
<title>nid&#45;20&#45;out&#45;&gt;nid&#45;0d</title>
<path fill="none" stroke="#333333" d="M261.3,-1501C334.26,-1501 431.48,-1501 506.54,-1501"/>
<polygon fill="#333333" stroke="#333333" points="506.98,-1504.5 516.98,-1501 506.98,-1497.5 506.98,-1504.5"/>
</g>
<!-- nid&#45;0e -->
<g id="node31" class="node">
<title>nid&#45;0e</title>
<ellipse fill="none" stroke="blue" cx="155.3" cy="-1586" rx="116.85" ry="26.74"/>
<text text-anchor="middle" x="155.3" y="-1589.8" font-family="Times,serif" font-size="14.00">0x0e</text>
<text text-anchor="middle" x="155.3" y="-1574.8" font-family="Times,serif" font-size="14.00">Stereo Digital Stripe</text>
</g>
<!-- nid&#45;21&#45;in -->
<g id="node41" class="node">
<title>nid&#45;21&#45;in</title>
<polygon fill="none" stroke="green" points="731.6,-1620 513.6,-1620 513.6,-1552 731.6,-1552 731.6,-1620"/>
<text text-anchor="middle" x="622.6" y="-1604.8" font-family="Times,serif" font-size="14.00">0x21</text>
<text text-anchor="middle" x="622.6" y="-1589.8" font-family="Times,serif" font-size="14.00">[Jack] SPDIF Out at Ext Left</text>
<text text-anchor="middle" x="622.6" y="-1574.8" font-family="Times,serif" font-size="14.00">Stereo Digital</text>
<text text-anchor="middle" x="622.6" y="-1559.8" font-family="Times,serif" font-size="14.00">OUT Detect</text>
</g>
<!-- nid&#45;0e&#45;&gt;nid&#45;21&#45;in -->
<g id="edge27" class="edge">
<title>nid&#45;0e&#45;&gt;nid&#45;21&#45;in</title>
<path fill="none" stroke="#333333" d="M272.22,-1586C342.64,-1586 432.32,-1586 503.19,-1586"/>
<polygon fill="#333333" stroke="#333333" points="503.51,-1589.5 513.51,-1586 503.51,-1582.5 503.51,-1589.5"/>
</g>
<!-- nid&#45;0f -->
<g id="node32" class="node">
<title>nid&#45;0f</title>
<ellipse fill="none" stroke="red" cx="622.6" cy="-1671" rx="82.05" ry="26.74"/>
<text text-anchor="middle" x="622.6" y="-1674.8" font-family="Times,serif" font-size="14.00">0x0f</text>
<text text-anchor="middle" x="622.6" y="-1659.8" font-family="Times,serif" font-size="14.00">Stereo Digital</text>
</g>
<!-- nid&#45;22&#45;out -->
<g id="node33" class="node">
<title>nid&#45;22&#45;out</title>
<polygon fill="none" stroke="green" points="258.3,-1705 52.3,-1705 52.3,-1637 258.3,-1637 258.3,-1705"/>
<text text-anchor="middle" x="155.3" y="-1689.8" font-family="Times,serif" font-size="14.00">0x22</text>
<text text-anchor="middle" x="155.3" y="-1674.8" font-family="Times,serif" font-size="14.00">[Jack] SPDIF In at Ext Left</text>
<text text-anchor="middle" x="155.3" y="-1659.8" font-family="Times,serif" font-size="14.00">Stereo Digital</text>
<text text-anchor="middle" x="155.3" y="-1644.8" font-family="Times,serif" font-size="14.00">IN Detect</text>
</g>
<!-- nid&#45;22&#45;out&#45;&gt;nid&#45;0f -->
<g id="edge19" class="edge">
<title>nid&#45;22&#45;out&#45;&gt;nid&#45;0f</title>
<path fill="none" stroke="#333333" d="M258.41,-1671C339.44,-1671 451.71,-1671 529.9,-1671"/>
<polygon fill="#333333" stroke="#333333" points="530.22,-1674.5 540.22,-1671 530.22,-1667.5 530.22,-1674.5"/>
</g>
</g>
</svg>
